<svg xmlns="http://www.w3.org/2000/svg" viewBox="0 0 79.02 79.02"><defs><style>.cls-1{fill:#40679b;stroke:#40679b;stroke-miterlimit:10;stroke-width:4.02px;}.cls-2{fill:#fff;}</style></defs><g id="Layer_2" data-name="Layer 2"><g id="my_stuff" data-name="my stuff"><circle class="cls-1" cx="39.51" cy="39.51" r="37.5"/><path id="Path_18" data-name="Path 18" class="cls-2" d="M21.88,45.49a.74.74,0,0,0-.28,1l2.46,4.26a.74.74,0,0,0,1,.27L61.3,30.12a3.17,3.17,0,0,0,1.49-1.95h0a3.18,3.18,0,0,0-.31-2.43h0a3.2,3.2,0,0,0-1.95-1.48h0a3.15,3.15,0,0,0-2.42.31h0M19.7,46.74h0l-4.61-8a1.63,1.63,0,0,1,.42-2.24,3.27,3.27,0,0,1,4-.25c7.68,5,4.76,6,14.47.22a1.84,1.84,0,0,0,.57-2.66L24.15,19.38c-.42-.57.51-1.63.82-2.08a3.33,3.33,0,0,1,4.21-1.13C35.54,19.24,51,27.27,51.92,26.1,54.16,25,58.29,21.5,61,22.55h0a4.88,4.88,0,0,1,3,2.3h0a5,5,0,0,1,.5,3.77h0c-.43,2.85-5.58,4.67-7.61,6.07-1.46.16-2.25,17.62-2.77,24.67A3.35,3.35,0,0,1,51,62.45l-.79.06a1.71,1.71,0,0,1-1.69-1l-7-15.6a1.83,1.83,0,0,0-2.58-.83c-9.86,5.54-7.51,3.48-7,12.64A3.28,3.28,0,0,1,29.66,61a1.63,1.63,0,0,1-2.14-.76l-4.62-8h0l-3.2-5.55Zm3.94-5.55L18,37.45a.75.75,0,0,0-.78,0h0a.74.74,0,0,0-.27,1l3,5.24A.74.74,0,0,0,21,44l2.61-1.5A.74.74,0,0,0,23.64,41.19ZM48,27,27.7,17.51a.75.75,0,0,0-.93.26l-.49.72a.74.74,0,0,0,0,.85L36.86,34a.74.74,0,0,0,1,.21L48,28.36A.75.75,0,0,0,48,27ZM42.49,43.78l7.43,16.49a.74.74,0,0,0,.73.44l.88-.07a.73.73,0,0,0,.68-.67l1.87-22.3A.74.74,0,0,0,53,37L42.8,42.83A.75.75,0,0,0,42.49,43.78ZM25.68,53.57l3,5.24a.73.73,0,0,0,1,.27h0a.71.71,0,0,0,.37-.68l-.41-6.75a.75.75,0,0,0-1.12-.6L26,52.56A.74.74,0,0,0,25.68,53.57Z"/></g></g></svg>