<svg xmlns="http://www.w3.org/2000/svg" viewBox="0 0 79.02 79.02"><defs><style>.cls-1{fill:#ab823b;stroke:#ab823b;stroke-miterlimit:10;stroke-width:4.02px;}.cls-2{fill:#fff;}</style></defs><g id="Layer_2" data-name="Layer 2"><g id="my_stuff" data-name="my stuff"><circle class="cls-1" cx="39.51" cy="39.51" r="37.5"/><path id="Path_17" data-name="Path 17" class="cls-2" d="M28.17,48.19l5.72,1.42a.36.36,0,0,0,.45-.35V46.34A.37.37,0,0,0,34,46H21.46a.37.37,0,0,0-.36.37v3a.36.36,0,0,0,.45.35l5.88-1.46.29-.07h.17l.29.07Zm-4-1v0a.37.37,0,0,1-.37.36H23a.36.36,0,0,1-.36-.36v0a.36.36,0,0,1,.36-.36h.77A.37.37,0,0,1,24.15,47.14Zm8.65-.36H32a.36.36,0,0,0-.36.36v0a.36.36,0,0,0,.36.36h.48a.36.36,0,0,0,.36-.36v-.39Zm-1.95.36v0a.36.36,0,0,1-.36.36h-.77a.36.36,0,0,1-.36-.36v0a.36.36,0,0,1,.36-.36h.77A.36.36,0,0,1,30.85,47.14Zm-2.23,0v0a.36.36,0,0,1-.36.36h-.77a.36.36,0,0,1-.36-.36v0a.36.36,0,0,1,.36-.36h.77A.36.36,0,0,1,28.62,47.14Zm-2.24,0v0a.36.36,0,0,1-.36.36h-.77a.36.36,0,0,1-.36-.36v0a.36.36,0,0,1,.36-.36H26A.36.36,0,0,1,26.38,47.14ZM27.85,62.4a2,2,0,0,1-1.19-.32h0c-.46-.34-.48-1-.88-1.37a.41.41,0,0,0-.11-.07,2,2,0,0,0-1.61,0,.41.41,0,0,0-.11.07c-.4.39-.41,1-.88,1.37a2.35,2.35,0,0,1-2.4,0h0c-.47-.34-.48-1-.88-1.37a.26.26,0,0,0-.11-.07,2.06,2.06,0,0,0-1.58,0,.44.44,0,0,0-.15.12c-.59.79-.63,1.53-1.67,1.65a.37.37,0,0,1-.4-.37h0a.36.36,0,0,1,.31-.35c.75-.11.76-1.15,1.36-1.59l.08,0a2.3,2.3,0,0,1,3.45,1.43h0A1.27,1.27,0,0,0,23,60.85a.38.38,0,0,0-.06-.38c-2.45-2.87-5.41-4.92-5.7-9.45a.36.36,0,0,1,.28-.37L20.08,50a.36.36,0,0,0,.27-.35V45.59a.36.36,0,0,1,.36-.36H21.8a.36.36,0,0,0,.36-.36v-1.8a.37.37,0,0,1,.37-.36H25.4a.37.37,0,0,0,.36-.37V41.4a.37.37,0,0,1,.36-.37h3a.37.37,0,0,1,.36.37v.94a.37.37,0,0,0,.36.37h2.76a.36.36,0,0,1,.36.36v1.8a.36.36,0,0,0,.36.36h1.36a.36.36,0,0,1,.36.36v4a.38.38,0,0,0,.28.36l2.73.67a.37.37,0,0,1,.27.37c-.28,4.49-3.19,6.54-5.63,9.37a.39.39,0,0,0-.06.39,1.25,1.25,0,0,0,1.86.73.39.39,0,0,0,.17-.14,3.79,3.79,0,0,1,.82-1.29l.08,0a2.31,2.31,0,0,1,3.46,1.43h0a1.09,1.09,0,0,0,.31.14l.15,0a.37.37,0,0,1,.32.36v0a.35.35,0,0,1-.4.36l-.27,0a1.81,1.81,0,0,1-.53-.24h0c-.67-.61-.57-1.75-1.79-1.6-1.18-.16-1.14,1-1.76,1.56l-.09.07c-.93.53-2.5.4-2.85-.77-.22-.92-1.34-1-2.09-.71a.38.38,0,0,0-.13.09c-.48.54-.54,1.46-1.4,1.6a2.58,2.58,0,0,1-.68.08Zm-4.28-2.34a2.27,2.27,0,0,1,3.32,1,.27.27,0,0,0,.24.18h.05a.25.25,0,0,0,.25-.25V49.42a.36.36,0,0,0-.45-.35l-8.65,2.15a.36.36,0,0,0-.28.39c.54,4,3.29,5.76,5.52,8.44ZM27.85,62v0Zm1-.89a2.23,2.23,0,0,1,3-1.19.36.36,0,0,0,.4-.11c2.18-2.54,4.78-4.34,5.3-8.19a.36.36,0,0,0-.27-.39l-8.66-2.15a.36.36,0,0,0-.45.35V60.91a.37.37,0,0,0,.36.37h0A.27.27,0,0,0,28.82,61.1Zm1.91-9.39A1.34,1.34,0,0,1,31.67,54h0a1.34,1.34,0,0,1-1.89,0h0A1.34,1.34,0,0,1,30.73,51.71Zm.42.91a.59.59,0,0,0-.84.84h0a.6.6,0,0,0,.84,0h0A.62.62,0,0,0,31.15,52.62ZM26.5,42.71h1.91a.38.38,0,0,0,.37-.37v-.2a.37.37,0,0,0-.37-.36H26.87a.37.37,0,0,0-.37.36v.57Zm5.75,2.16V43.81a.36.36,0,0,0-.36-.36H23.27a.36.36,0,0,0-.36.36v1.06a.36.36,0,0,0,.36.36h8.62A.36.36,0,0,0,32.25,44.87Z"/><path class="cls-2" d="M62,42.17h-.7a2,2,0,0,0-2-2H48.91a2,2,0,0,0-2,2h-.69a2.69,2.69,0,0,1,2.68-2.69h10.4A2.7,2.7,0,0,1,62,42.17Z"/><path class="cls-2" d="M58.59,49.27h-9a1.9,1.9,0,0,1-1.9-1.9V44.69a1.9,1.9,0,0,1,1.9-1.89h9a1.89,1.89,0,0,1,1.89,1.89v2.68A1.9,1.9,0,0,1,58.59,49.27Zm-9-5.78a1.2,1.2,0,0,0-1.2,1.2v2.68a1.21,1.21,0,0,0,1.2,1.21h9a1.21,1.21,0,0,0,1.2-1.21V44.69a1.2,1.2,0,0,0-1.2-1.2Z"/><path class="cls-2" d="M47,63.85a.25.25,0,0,1-.12,0,.36.36,0,0,1-.21-.45l2.13-5.62a.33.33,0,0,1,.44-.2.36.36,0,0,1,.21.45L47.3,63.63A.33.33,0,0,1,47,63.85Z"/><path class="cls-2" d="M61.25,63.85a.35.35,0,0,1-.33-.22L58.8,58a.35.35,0,0,1,.65-.25l2.12,5.62a.35.35,0,0,1-.2.45A.25.25,0,0,1,61.25,63.85Z"/><path class="cls-2" d="M58,59.46H50.27a.35.35,0,1,1,0-.7H58a.35.35,0,1,1,0,.7Z"/><path class="cls-2" d="M58.75,62H49.48a.35.35,0,1,1,0-.7h9.27a.35.35,0,0,1,0,.7Z"/><path class="cls-2" d="M58.54,40.18a.35.35,0,0,1-.34-.26l-.36-1.42a.29.29,0,0,0-.28-.21h-6.9a.28.28,0,0,0-.27.21L50,39.92a.34.34,0,0,1-.42.25.36.36,0,0,1-.25-.43l.36-1.41a1,1,0,0,1,.95-.74h6.9a1,1,0,0,1,.95.74l.37,1.41a.37.37,0,0,1-.25.43Z"/><path class="cls-2" d="M59.22,54.9H56.5a1.37,1.37,0,1,1,0-2.73h4.26a.54.54,0,0,0,.54-.54V42.17H62v9.46a1.25,1.25,0,0,1-1.24,1.24h-.87Zm-2.72-2a.67.67,0,1,0,0,1.33h2.21l.45-1.33Z"/><path class="cls-2" d="M51.73,54.9H49l-.68-2h-.86a1.24,1.24,0,0,1-1.24-1.24V42.17h.69v9.46a.55.55,0,0,0,.55.54h4.26a1.37,1.37,0,0,1,0,2.73Zm-2.22-.7h2.22a.67.67,0,1,0,0-1.33H49.07Z"/><path class="cls-2" d="M59.49,56.87H48.74A1.85,1.85,0,0,1,47,55.61l-.47-1.38a.35.35,0,0,1,.22-.44.34.34,0,0,1,.44.22l.47,1.38a1.15,1.15,0,0,0,1.09.78H59.49a1.15,1.15,0,0,0,1.09-.78L61,54a.35.35,0,0,1,.44-.22.34.34,0,0,1,.22.44l-.46,1.38A1.85,1.85,0,0,1,59.49,56.87Z"/><path class="cls-2" d="M48.12,28a.67.67,0,0,1-.67.67H44a.38.38,0,1,1,0-.75h3.4V27.6a1,1,0,0,0-.83-1l-2.62-.36a.38.38,0,0,1,.1-.75l2.63.36a1.75,1.75,0,0,1,1.48,1.71Z"/><path class="cls-2" d="M61.83,34.12h-.38a2.21,2.21,0,0,1-2.21-2.21h0a.26.26,0,0,0-.25-.26H46.9a.26.26,0,0,0-.26.26h0a2.21,2.21,0,0,1-2.21,2.21h-.38a2.21,2.21,0,0,1-2.21-2.21v-6.3a1,1,0,0,0-.5-.85L41,24.57a.77.77,0,0,1-.47-.7V22.82a1,1,0,0,1,1-1h.85a1.28,1.28,0,0,0,1.14-.68L45.24,18a2.68,2.68,0,0,1,2.35-1.4H58.3A2.68,2.68,0,0,1,60.64,18l1.69,3.09a1.31,1.31,0,0,0,1.15.68h.85a1,1,0,0,1,1,1v1.05a.77.77,0,0,1-.46.7l-.34.19a1,1,0,0,0-.49.85v6.3A2.22,2.22,0,0,1,61.83,34.12ZM46.14,30.9h13.6a.25.25,0,0,1,.25.25v.76a1.47,1.47,0,0,0,1.46,1.46h.38a1.46,1.46,0,0,0,1.46-1.46V25.46A1.48,1.48,0,0,1,64,24.18l.41-.23a.26.26,0,0,0,.13-.22v-.91a.26.26,0,0,0-.26-.25h-1a1.8,1.8,0,0,1-1.58-.94L60,18.4a1.9,1.9,0,0,0-1.68-1H47.59a1.93,1.93,0,0,0-1.69,1l-1.68,3.09a2.07,2.07,0,0,1-1.81,1.07h-.85a.26.26,0,0,0-.26.25v1.06l.06,0,.36.2a1.74,1.74,0,0,1,.87,1.51v6.3a1.47,1.47,0,0,0,1.46,1.46h.38a1.46,1.46,0,0,0,1.46-1.46v-.76A.25.25,0,0,1,46.14,30.9Z"/><path class="cls-2" d="M59.69,22.59H46.2a.73.73,0,0,1-.65-1.08l1.22-2.23a1.67,1.67,0,0,1,1.46-.87h9.85a1,1,0,0,1,.83.49l1.42,2.61A.73.73,0,0,1,59.69,22.59Zm-12.22-.75h11a.73.73,0,0,0,.64-1.08l-.61-1.12a.9.9,0,0,0-.8-.47H48.23a.92.92,0,0,0-.8.47l-.61,1.12A.74.74,0,0,0,47.47,21.84Z"/><path class="cls-2" d="M61.92,28.64H58.41a.64.64,0,0,1-.64-.64v-.4a1.74,1.74,0,0,1,1.47-1.71l2.63-.36a.38.38,0,0,1,.43.32.39.39,0,0,1-.33.43l-2.62.36a1,1,0,0,0-.83,1v.29h3.4a.38.38,0,1,1,0,.75Z"/><path class="cls-2" d="M54.41,28.7H51.47a1.81,1.81,0,0,1-1.81-1.61l-.1-.85a.43.43,0,0,1,.43-.48h5.9a.43.43,0,0,1,.43.48l-.09.85A1.83,1.83,0,0,1,54.41,28.7Zm-4-1.7h0a1.07,1.07,0,0,0,1.06.95h2.94A1.07,1.07,0,0,0,55.48,27h0a.44.44,0,0,0-.43-.49H50.84A.44.44,0,0,0,50.41,27Zm5.4.43Z"/><path class="cls-2" d="M46.27,31.65H44.61a.38.38,0,1,1,0-.75h1.66a.38.38,0,0,1,0,.75Z"/><path class="cls-2" d="M61.27,31.65H59.62a.38.38,0,1,1,0-.75h1.65a.38.38,0,1,1,0,.75Z"/><path id="Path_18" data-name="Path 18" class="cls-2" d="M17.55,29.25a.36.36,0,0,0-.14.48l1.14,2a.36.36,0,0,0,.48.13l17.24-9.64a1.51,1.51,0,0,0,.71-.91h0a1.53,1.53,0,0,0-.13-1.15h0a1.47,1.47,0,0,0-.91-.71h0a1.49,1.49,0,0,0-1.15.13h0M16.52,29.83h0L14.39,26A.76.76,0,0,1,14.6,25a1.55,1.55,0,0,1,1.89-.09c3.59,2.39,2.2,2.85,6.83.19a.86.86,0,0,0,.28-1.25l-4.81-6.88c-.19-.27.25-.77.4-1a1.58,1.58,0,0,1,2-.5c3,1.49,10.23,5.38,10.67,4.83,1.06-.49,3-2.13,4.31-1.62h0a2.35,2.35,0,0,1,1.41,1.1h0a2.38,2.38,0,0,1,.2,1.79h0c-.22,1.34-2.66,2.16-3.63,2.82-.69.06-1.18,8.3-1.47,11.62a1.57,1.57,0,0,1-1.47,1.44l-.37,0A.81.81,0,0,1,30,37l-3.22-7.4a.86.86,0,0,0-1.21-.42c-4.69,2.56-3.57,1.6-3.41,5.93a1.56,1.56,0,0,1-1.07,1.56.78.78,0,0,1-1-.38L18,32.47h0l-1.47-2.64Zm1.89-2.6-2.64-1.8a.35.35,0,0,0-.37,0h0a.33.33,0,0,0-.13.47l1.39,2.5a.35.35,0,0,0,.48.13l1.24-.69A.36.36,0,0,0,18.41,27.23ZM30,20.71l-9.5-4.63a.36.36,0,0,0-.44.11l-.24.34a.38.38,0,0,0,0,.41l4.9,7a.35.35,0,0,0,.46.11L30,21.33A.35.35,0,0,0,30,20.71ZM27.3,28.58l3.4,7.83a.36.36,0,0,0,.34.22l.41,0a.35.35,0,0,0,.33-.32l1-10.51a.35.35,0,0,0-.52-.34l-4.84,2.7A.34.34,0,0,0,27.3,28.58Zm-8,4.51,1.39,2.5a.35.35,0,0,0,.48.13h0a.37.37,0,0,0,.18-.32l-.16-3.19a.35.35,0,0,0-.52-.29l-1.24.7A.33.33,0,0,0,19.3,33.09Z"/></g></g></svg>