<svg xmlns="http://www.w3.org/2000/svg" viewBox="0 0 79.02 79.02"><defs><style>.cls-1{fill:#704539;stroke:#704539;stroke-miterlimit:10;stroke-width:4.02px;}.cls-2{fill:#fff;}</style></defs><g id="Layer_2" data-name="Layer 2"><g id="my_stuff" data-name="my stuff"><circle class="cls-1" cx="39.51" cy="39.51" r="37.5"/><path class="cls-2" d="M50.28,16.06h-.92l-.58-2.27a2.19,2.19,0,0,0-2.12-1.65H32.36a2.19,2.19,0,0,0-2.12,1.65l-.59,2.27h-.91A5.74,5.74,0,0,0,23,21.79v19.6a2.73,2.73,0,0,0,2.73,2.73h1.68l1.4,4.2h5.75a3,3,0,0,0,0-6H25.74a1,1,0,0,1-1-1V21.79a4,4,0,0,1,4-4H50.28a4,4,0,0,1,4,4v19.6a1,1,0,0,1-1,1H44.44a3,3,0,0,0,0,6H50.2l1.4-4.2h1.68A2.73,2.73,0,0,0,56,41.39V21.79A5.74,5.74,0,0,0,50.28,16.06ZM34.57,44.12a1.22,1.22,0,1,1,0,2.43H30.09l-.82-2.43Zm-2.63-29.9a.43.43,0,0,1,.42-.32h14.3a.43.43,0,0,1,.41.32l.47,1.84H31.47Zm17,32.33H44.44a1.22,1.22,0,0,1,0-2.43h5.3Z"/><path class="cls-2" d="M52.87,32.57V27a4.09,4.09,0,0,0-4.09-4.09H30.24A4.09,4.09,0,0,0,26.15,27v5.55a4.09,4.09,0,0,0,4.09,4.09H48.78A4.09,4.09,0,0,0,52.87,32.57Zm-25,0V27a2.33,2.33,0,0,1,2.33-2.33H48.78A2.33,2.33,0,0,1,51.11,27v5.55a2.33,2.33,0,0,1-2.33,2.33H30.24A2.33,2.33,0,0,1,27.91,32.57Z"/><path class="cls-2" d="M29.43,53.53A.88.88,0,0,0,28.3,54L23.9,65.69a.88.88,0,0,0,.51,1.13.89.89,0,0,0,.31.06.89.89,0,0,0,.83-.57L30,54.67A.88.88,0,0,0,29.43,53.53Z"/><path class="cls-2" d="M50.72,54a.88.88,0,1,0-1.65.63l4.4,11.64a.88.88,0,0,0,.82.57.81.81,0,0,0,.31-.06.88.88,0,0,0,.52-1.13Z"/><path class="cls-2" d="M47.48,57.77a.88.88,0,1,0,0-1.76H31.54a.88.88,0,1,0,0,1.76Z"/><path class="cls-2" d="M49.11,61.25H29.9a.88.88,0,0,0,0,1.76H49.11a.88.88,0,1,0,0-1.76Z"/><path class="cls-2" d="M54.83,45.71a.88.88,0,0,0-1.11.55l-1,2.87a2.22,2.22,0,0,1-2.11,1.52H28.38a2.24,2.24,0,0,1-2.12-1.52l-1-2.87a.89.89,0,0,0-1.12-.55.88.88,0,0,0-.55,1.12l1,2.86a4,4,0,0,0,3.79,2.72H50.64a4,4,0,0,0,3.78-2.72l1-2.86A.89.89,0,0,0,54.83,45.71Z"/></g></g></svg>