<svg xmlns="http://www.w3.org/2000/svg" viewBox="0 0 79.02 79.02"><defs><style>.cls-1{fill:#4d4d4f;stroke:#4d4d4f;stroke-miterlimit:10;stroke-width:4.02px;}.cls-2{fill:#f6f6f6;}</style></defs><g id="Layer_2" data-name="Layer 2"><g id="my_stuff" data-name="my stuff"><circle class="cls-1" cx="39.51" cy="39.51" r="37.5"/><path class="cls-2" d="M28,45.69a1.6,1.6,0,0,1-1.61,1.6H18.06a.9.9,0,0,1,0-1.8h8.13v-.68a2.33,2.33,0,0,0-2-2.3l-6.26-.86a.9.9,0,0,1,.24-1.78l6.28.86A4.16,4.16,0,0,1,28,44.81Z"/><path class="cls-2" d="M60.74,60.38h-.9a5.29,5.29,0,0,1-5.29-5.29h0a.61.61,0,0,0-.61-.61H25.07a.6.6,0,0,0-.6.61h0a5.29,5.29,0,0,1-5.29,5.29h-.9A5.29,5.29,0,0,1,13,55.09v-15a2.34,2.34,0,0,0-1.18-2l-.8-.45a1.85,1.85,0,0,1-1.12-1.68V33.4A2.43,2.43,0,0,1,12.32,31h2a3.13,3.13,0,0,0,2.74-1.62l4-7.38a6.37,6.37,0,0,1,5.6-3.33H52.29A6.39,6.39,0,0,1,57.9,22l4,7.38A3.1,3.1,0,0,0,64.67,31h2a2.42,2.42,0,0,1,2.42,2.43v2.49A1.84,1.84,0,0,1,68,37.57l-.8.45a2.34,2.34,0,0,0-1.18,2v15A5.29,5.29,0,0,1,60.74,60.38Zm-37.47-7.7H55.74a.61.61,0,0,1,.61.61v1.8a3.49,3.49,0,0,0,3.49,3.49h.9a3.5,3.5,0,0,0,3.49-3.49V39.7A3.54,3.54,0,0,1,66,36.63l1-.55a.61.61,0,0,0,.31-.53V33.4a.61.61,0,0,0-.6-.61H64.31a4.33,4.33,0,0,1-3.79-2.25l-4.2-7.7a4.59,4.59,0,0,0-4-2.39H26.72a4.58,4.58,0,0,0-4,2.39l-4,7.38a4.93,4.93,0,0,1-4.32,2.57h-2a.6.6,0,0,0-.61.6l0,2.51.15.08.86.49a4.13,4.13,0,0,1,2.09,3.59v15a3.49,3.49,0,0,0,3.49,3.49h.9a3.5,3.5,0,0,0,3.49-3.49v-1.8A.6.6,0,0,1,23.27,52.68Z"/><path class="cls-2" d="M55.62,32.85H23.4a1.75,1.75,0,0,1-1.54-2.59l2.91-5.32a4,4,0,0,1,3.49-2.07H51.79a2.22,2.22,0,0,1,2,1.16l3.4,6.23A1.75,1.75,0,0,1,55.62,32.85Zm-29.19-1.8H52.59a1.75,1.75,0,0,0,1.53-2.59L52.67,25.8a2.18,2.18,0,0,0-1.91-1.13H28.26a2.16,2.16,0,0,0-1.91,1.13L24.9,28.46A1.75,1.75,0,0,0,26.43,31.05Z"/><path class="cls-2" d="M61,47.29h-8.4A1.53,1.53,0,0,1,51,45.76v-.95a4.15,4.15,0,0,1,3.52-4.08l6.28-.86a.9.9,0,1,1,.25,1.78l-6.28.86a2.33,2.33,0,0,0-2,2.3v.68H61a.9.9,0,0,1,0,1.8Z"/><path class="cls-2" d="M43,47.44H36a4.37,4.37,0,0,1-4.33-3.86l-.23-2a1,1,0,0,1,1-1.16h14.1a1,1,0,0,1,1,1.16l-.24,2A4.35,4.35,0,0,1,43,47.44Zm-9.57-4.07h0A2.56,2.56,0,0,0,36,45.64h7a2.57,2.57,0,0,0,2.55-2.27h0a1,1,0,0,0-1-1.16H34.48A1,1,0,0,0,33.45,43.37Zm12.91,1Z"/><path class="cls-2" d="M23.57,54.48h-4a.9.9,0,0,1,0-1.8h4a.9.9,0,0,1,0,1.8Z"/><path class="cls-2" d="M59.41,54.48h-4a.9.9,0,1,1,0-1.8h4a.9.9,0,0,1,0,1.8Z"/></g></g></svg>