<svg xmlns="http://www.w3.org/2000/svg" viewBox="0 0 79.02 79.02"><defs><style>.cls-1{fill:#2f6e6a;stroke:#2f6e6a;stroke-miterlimit:10;stroke-width:4.02px;}.cls-2{fill:#fff;}</style></defs><g id="Layer_2" data-name="Layer 2"><g id="my_stuff" data-name="my stuff"><circle class="cls-1" cx="39.51" cy="39.51" r="37.5"/><path id="Path_17" data-name="Path 17" class="cls-2" d="M40.68,31.61l11.87,3a.75.75,0,0,0,.94-.73V27.76a.75.75,0,0,0-.76-.75h-26a.75.75,0,0,0-.75.75v6.16a.76.76,0,0,0,.94.73l12.22-3,.59-.15a.73.73,0,0,1,.36,0l.59.15Zm-8.36-2.17v0a.75.75,0,0,1-.76.75H30a.74.74,0,0,1-.75-.75v0a.75.75,0,0,1,.75-.76h1.59A.76.76,0,0,1,32.32,29.44Zm18-.76H48.54a.76.76,0,0,0-.75.76v0a.75.75,0,0,0,.75.75h1a.75.75,0,0,0,.76-.75v-.8Zm-4,.76v0a.75.75,0,0,1-.75.75H43.9a.75.75,0,0,1-.75-.75v0a.76.76,0,0,1,.75-.76h1.6A.76.76,0,0,1,46.25,29.44Zm-4.65,0v0a.74.74,0,0,1-.75.75H39.26a.74.74,0,0,1-.75-.75v0a.75.75,0,0,1,.75-.76h1.59A.75.75,0,0,1,41.6,29.44Zm-4.64,0v0a.75.75,0,0,1-.75.75h-1.6a.75.75,0,0,1-.75-.75v0a.76.76,0,0,1,.75-.76h1.6A.76.76,0,0,1,37,29.44ZM40,61.12a4.36,4.36,0,0,1-2.49-.66h0c-1-.71-1-2-1.83-2.84a.78.78,0,0,0-.24-.16,4.19,4.19,0,0,0-3.33,0,1,1,0,0,0-.24.15c-.83.81-.86,2.14-1.83,2.85a4.91,4.91,0,0,1-5,0h0c-1-.7-1-2-1.83-2.84a1,1,0,0,0-.24-.16,4.26,4.26,0,0,0-3.27,0,.72.72,0,0,0-.32.25c-1.21,1.62-1.29,3.17-3.46,3.41a.76.76,0,0,1-.84-.75v0a.76.76,0,0,1,.65-.73c1.56-.24,1.58-2.39,2.84-3.29a.46.46,0,0,1,.15-.09c3.29-1.53,5.91-.41,7.18,3h0c1.73.89,3.32.42,4-1.27a.76.76,0,0,0-.12-.79c-5.1-6-11.25-10.22-11.84-19.62a.75.75,0,0,1,.57-.77l5.32-1.32a.74.74,0,0,0,.56-.72V26.21a.75.75,0,0,1,.75-.75h2.27a.76.76,0,0,0,.75-.75V21a.76.76,0,0,1,.75-.75h6a.75.75,0,0,0,.75-.75v-2a.75.75,0,0,1,.76-.75h6.3a.75.75,0,0,1,.76.75v2a.75.75,0,0,0,.75.75H50a.75.75,0,0,1,.75.75v3.74a.76.76,0,0,0,.76.75h2.82a.74.74,0,0,1,.75.75v8.38a.77.77,0,0,0,.57.73l5.67,1.4a.74.74,0,0,1,.56.77c-.58,9.32-6.61,13.58-11.69,19.45a.8.8,0,0,0-.12.81,2.59,2.59,0,0,0,3.86,1.52.71.71,0,0,0,.34-.3c.55-.91.82-2,1.73-2.67a.62.62,0,0,1,.16-.1c3.28-1.52,5.9-.41,7.17,3h0a2.53,2.53,0,0,0,.65.29l.32.07a.76.76,0,0,1,.66.74v0a.74.74,0,0,1-.84.75,3.69,3.69,0,0,1-.56-.11,3.93,3.93,0,0,1-1.08-.5h0c-1.39-1.26-1.19-3.63-3.73-3.31-2.44-.33-2.37,2-3.65,3.24l-.18.13c-1.93,1.12-5.19.83-5.92-1.59-.46-1.91-2.78-2.15-4.35-1.47a.76.76,0,0,0-.26.18c-1,1.13-1.12,3-2.91,3.31a5.12,5.12,0,0,1-1.4.18Zm-8.9-4.87c2.47-1.42,5.95-.64,6.9,2.16a.53.53,0,0,0,.5.38h.1a.53.53,0,0,0,.52-.52V34.17a.75.75,0,0,0-.94-.73l-18,4.46a.75.75,0,0,0-.56.82c1.1,8.25,6.82,12,11.45,17.53Zm8.9,4v0Zm2-1.85c.87-2.6,3.88-3.45,6.31-2.47a.75.75,0,0,0,.82-.22c4.54-5.29,9.94-9,11-17a.75.75,0,0,0-.57-.82l-18-4.46a.75.75,0,0,0-.93.73V58a.76.76,0,0,0,.75.76h.09A.53.53,0,0,0,42,58.42Zm4-19.51a2.79,2.79,0,0,1,2,4.73h0a2.79,2.79,0,0,1-3.93,0h0A2.79,2.79,0,0,1,46,38.91Zm.86,1.9c-1.11-1.14-2.87.63-1.73,1.74h0a1.23,1.23,0,0,0,1.73,0h0A1.23,1.23,0,0,0,46.85,40.81ZM37.21,20.22h4a.75.75,0,0,0,.75-.75V19a.75.75,0,0,0-.75-.75H38a.76.76,0,0,0-.76.75v1.18Zm11.95,4.49V22.52a.75.75,0,0,0-.75-.75H30.5a.75.75,0,0,0-.75.75v2.19a.76.76,0,0,0,.75.75H48.41A.76.76,0,0,0,49.16,24.71Z"/></g></g></svg>